<svg width="159" height="46" viewBox="0 0 159 46" fill="none" xmlns="http://www.w3.org/2000/svg">
<path d="M50.8041 13.6694C51.6016 13.2268 52.2607 12.6592 52.7691 11.9745C53.4209 11.0868 53.7513 10.0571 53.7513 8.91394C53.7513 6.79105 53.0709 5.15896 51.7308 4.06459C50.4188 2.98364 48.4478 2.43555 45.8731 2.43555H37.9949V26.2116H46.3346C48.8611 26.2116 50.8505 25.5867 52.2485 24.3533C53.658 23.1108 54.3719 21.3848 54.3719 19.2241C54.3719 17.8054 53.9824 16.5666 53.216 15.5435C52.599 14.701 51.79 14.0724 50.8041 13.6694ZM48.969 11.3849C48.2338 12.0031 47.2235 12.3159 45.967 12.3159H41.6578V5.5589H45.8719C47.3113 5.5589 48.3886 5.83143 49.0745 6.37099C49.7439 6.88738 50.0695 7.7141 50.0695 8.89808C50.0701 9.9577 49.7104 10.7704 48.969 11.3849ZM41.6584 15.374H46.445C49.3019 15.374 50.6907 16.6434 50.6907 19.254C50.6907 20.4685 50.3182 21.3933 49.5513 22.0817C48.7959 22.7584 47.735 23.1016 46.3974 23.1016H41.659V15.374H41.6584Z" fill="white"/>
<path d="M152.582 2.43457V19.645L141.359 2.43457H137.818V26.21H141.499V9.07757L152.692 26.21H156.232V2.43457H152.582Z" fill="white"/>
<path d="M111.639 13.6587C112.459 12.5393 112.875 11.2096 112.875 9.70858C112.875 7.35524 112.126 5.53171 110.651 4.2892C109.2 3.05888 107.111 2.43457 104.44 2.43457H96.4662V26.21H100.146V16.8387H105.101L110.128 26.21H113.893V25.6357L108.58 16.0352C109.867 15.4858 110.895 14.6878 111.639 13.6587ZM109.195 9.70919C109.195 10.9432 108.787 11.8985 107.946 12.6307C107.116 13.3617 105.969 13.7324 104.535 13.7324H100.147V5.55915H104.518C106.046 5.56951 107.22 5.93349 108.009 6.64375C108.807 7.3528 109.195 8.35572 109.195 9.70919Z" fill="white"/>
<path d="M62.1837 2.43457H58.519V26.21H62.1837V2.43457Z" fill="white"/>
<path d="M85.1989 2.43457H80.6921L70.8386 13.3995V2.43457H67.1745V26.21H70.8386V18.2001L73.3395 15.6017L81.425 26.21H85.85L75.7971 12.9856L85.1989 2.43457Z" fill="white"/>
<path d="M123.26 2.43457L114.18 26.21H117.988L120.168 20.1639H129.447L131.657 26.21H135.448L126.352 2.43457H123.26ZM128.316 17.0405H121.31L124.805 7.4028L128.316 17.0405Z" fill="white"/>
<path d="M91.4907 2.43457H87.8266V26.21H91.4907V2.43457Z" fill="white"/>
<path d="M9.84203 14.7167C13.3179 14.7167 16.1357 11.8989 16.1357 8.42305C16.1357 4.94716 13.3179 2.12939 9.84203 2.12939C6.36614 2.12939 3.54837 4.94716 3.54837 8.42305C3.54837 11.8989 6.36614 14.7167 9.84203 14.7167Z" fill="#F50303"/>
<path d="M24.0017 14.7167C27.4776 14.7167 30.2954 11.8989 30.2954 8.42305C30.2954 4.94716 27.4776 2.12939 24.0017 2.12939C20.5258 2.12939 17.708 4.94716 17.708 8.42305C17.708 11.8989 20.5258 14.7167 24.0017 14.7167Z" fill="#FFE600"/>
<path d="M16.9216 26.5165C20.3974 26.5165 23.2152 23.6987 23.2152 20.2229C23.2152 16.747 20.3974 13.9292 16.9216 13.9292C13.4457 13.9292 10.6279 16.747 10.6279 20.2229C10.6279 23.6987 13.4457 26.5165 16.9216 26.5165Z" fill="#AE00B9"/>
<path fill-rule="evenodd" clip-rule="evenodd" d="M6.66441 37.9542C5.67369 37.6695 4.95184 37.3207 4.49885 36.9074C4.04952 36.4904 3.82516 35.977 3.82516 35.3673C3.82516 34.6778 4.10012 34.1084 4.64944 33.659C5.20302 33.206 5.92061 32.9792 6.80281 32.9792C7.40455 32.9792 7.93985 33.0957 8.40869 33.328C8.88179 33.5609 9.24699 33.8816 9.50366 34.29C9.7646 34.6991 9.89446 35.146 9.89446 35.6313H8.73364C8.73364 35.1021 8.56537 34.6869 8.22822 34.3864C7.89107 34.0815 7.41614 33.9291 6.8022 33.9291C6.23276 33.9291 5.7877 34.0553 5.46701 34.3083C5.15059 34.5571 4.99208 34.904 4.99208 35.349C4.99208 35.7057 5.14267 36.0087 5.44323 36.2575C5.74807 36.5019 6.26325 36.7269 6.98937 36.9311C7.71915 37.136 8.28858 37.3622 8.69767 37.6109C9.11103 37.8554 9.41526 38.1426 9.61218 38.4712C9.81276 38.7998 9.91275 39.1869 9.91275 39.632C9.91275 40.3417 9.63596 40.9111 9.08238 41.3403C8.52879 41.7652 7.78926 41.978 6.86255 41.978C6.26081 41.978 5.6993 41.8634 5.17803 41.6348C4.65676 41.4019 4.25376 41.0855 3.96904 40.6843C3.6886 40.2837 3.54837 39.8289 3.54837 39.3198H4.70919C4.70919 39.849 4.90367 40.2679 5.29265 40.577C5.68588 40.8818 6.20898 41.0342 6.86255 41.0342C7.47223 41.0342 7.93924 40.9099 8.26419 40.6611C8.58915 40.4124 8.75132 40.0734 8.75132 39.6448C8.75132 39.2156 8.60073 38.8852 8.30016 38.6523C7.9996 38.4151 7.45394 38.1828 6.66441 37.9542ZM14.1664 41.9774C13.2842 41.9774 12.566 41.6884 12.0131 41.1111C11.4595 40.5294 11.1833 39.7533 11.1833 38.7833V38.5791C11.1833 37.9334 11.3059 37.3579 11.5503 36.8525C11.7991 36.3434 12.1435 35.9459 12.5849 35.6618C13.03 35.3728 13.511 35.2289 14.0287 35.2289C14.8749 35.2289 15.5321 35.5076 16.0016 36.0654C16.471 36.6227 16.7051 37.4207 16.7051 38.4596V38.923H12.296C12.3118 39.5643 12.4984 40.0838 12.8556 40.4807C13.2166 40.8739 13.6738 41.0702 14.2274 41.0702C14.6206 41.0702 14.9535 40.9897 15.2261 40.8294C15.4986 40.6691 15.7376 40.4563 15.9418 40.1917L16.6216 40.7209C16.0753 41.5586 15.2571 41.9774 14.1664 41.9774ZM14.0323 36.1422C13.583 36.1422 13.2062 36.3068 12.9014 36.6355C12.5965 36.9604 12.4081 37.4177 12.3362 38.0072H15.5961V37.9231C15.5644 37.3579 15.412 36.9208 15.1389 36.6117C14.867 36.2989 14.4975 36.1422 14.0323 36.1422ZM21.3978 36.3471C21.2295 36.319 21.0472 36.305 20.8503 36.305C20.1205 36.305 19.6255 36.6159 19.3645 37.2372V41.8567H18.2519V35.3484H19.3346L19.3529 36.1002C19.7181 35.5185 20.2351 35.2277 20.9045 35.2277C21.121 35.2277 21.2856 35.2558 21.3978 35.3119V36.3471ZM24.9272 40.3459L26.5392 35.3472H27.6762L25.3424 41.8555H24.4943L22.1361 35.3472H23.2731L24.9272 40.3459ZM30.3246 41.8561H29.0925V35.3472H30.3246V41.8561ZM28.9992 33.6225C28.9992 33.442 29.0534 33.2896 29.162 33.1652C29.2735 33.0408 29.4381 32.9786 29.6546 32.9786C29.871 32.9786 30.0356 33.0408 30.1478 33.1652C30.26 33.2896 30.3161 33.442 30.3161 33.6225C30.3161 33.8029 30.26 33.9535 30.1478 34.0736C30.0356 34.1937 29.871 34.2541 29.6546 34.2541C29.4381 34.2541 29.2735 34.1937 29.1614 34.0736C29.0528 33.9529 28.9992 33.8029 28.9992 33.6225ZM34.8472 41.069C35.2441 41.069 35.591 40.9489 35.8879 40.7081C36.1848 40.4673 36.3494 40.1667 36.3811 39.8058H37.434C37.4139 40.1789 37.2859 40.5337 37.0487 40.8702C36.8121 41.2074 36.4951 41.4757 36.0982 41.6762C35.705 41.8768 35.288 41.9768 34.8472 41.9768C33.9607 41.9768 33.2553 41.6817 32.7298 41.0928C32.2085 40.499 31.9476 39.6893 31.9476 38.6626V38.4761C31.9476 37.8426 32.064 37.2793 32.2963 36.786C32.5292 36.2928 32.8615 35.9099 33.2949 35.6374C33.7321 35.3649 34.2473 35.2283 34.8405 35.2283C35.5702 35.2283 36.1756 35.4466 36.6573 35.8843C37.1426 36.3215 37.4011 36.8891 37.4334 37.5865H36.3805C36.3482 37.1653 36.1878 36.8208 35.8995 36.5519C35.6147 36.2794 35.2617 36.1428 34.8411 36.1428C34.2759 36.1428 33.8363 36.3471 33.5236 36.7568C33.2151 37.1616 33.0602 37.7493 33.0602 38.5193V38.7297C33.0602 39.4796 33.2145 40.0569 33.5236 40.4624C33.8327 40.8666 34.2735 41.069 34.8472 41.069ZM41.631 41.9774C40.7488 41.9774 40.0312 41.6884 39.4776 41.1111C38.9241 40.5294 38.6479 39.7533 38.6479 38.7833V38.5791C38.6479 37.9334 38.7704 37.3579 39.0149 36.8525C39.2636 36.3434 39.6087 35.9459 40.0495 35.6618C40.4946 35.3728 40.9756 35.2289 41.4932 35.2289C42.3394 35.2289 42.9973 35.5076 43.4661 36.0654C43.9356 36.6227 44.1697 37.4207 44.1697 38.4596V38.923H39.7605C39.7764 39.5643 39.9629 40.0838 40.3202 40.4807C40.6811 40.8739 41.1384 41.0702 41.692 41.0702C42.0852 41.0702 42.4181 40.9897 42.6906 40.8294C42.9631 40.6691 43.2021 40.4563 43.4064 40.1917L44.0862 40.7209C43.5399 41.5586 42.7223 41.9774 41.631 41.9774ZM41.4963 36.1422C41.0469 36.1422 40.6702 36.3068 40.3653 36.6355C40.0605 36.9604 39.8721 37.4177 39.7995 38.0072H43.0601V37.9231C43.0278 37.3579 42.8753 36.9208 42.6028 36.6117C42.3303 36.2989 41.9614 36.1422 41.4963 36.1422ZM45.6744 43.601L45.0427 43.1681C45.4195 42.6426 45.6164 42.1012 45.6323 41.5439V40.5392H46.7212V41.4116C46.7212 41.8165 46.6212 42.2213 46.4206 42.6267C46.2237 43.0315 45.9749 43.3565 45.6744 43.601ZM54.4299 37.953C53.4392 37.6682 52.7173 37.3195 52.2643 36.9062C51.815 36.4891 51.5906 35.9758 51.5906 35.3661C51.5906 34.6766 51.8656 34.1071 52.4149 33.6578C52.9685 33.2054 53.6861 32.9786 54.5683 32.9786C55.17 32.9786 55.7053 33.0951 56.1742 33.3274C56.6473 33.5603 57.0125 33.881 57.2691 34.29C57.5301 34.6991 57.6599 35.146 57.6599 35.6313H56.4991C56.4991 35.1021 56.3308 34.6869 55.9937 34.3864C55.6572 34.0815 55.1816 33.9291 54.5683 33.9291C53.9988 33.9291 53.5538 34.0553 53.2331 34.3077C52.9161 34.5565 52.7582 34.9034 52.7582 35.3484C52.7582 35.7051 52.9081 36.0081 53.2093 36.2568C53.5141 36.5013 54.0293 36.7263 54.7548 36.9305C55.4846 37.1348 56.054 37.3616 56.4631 37.6103C56.8759 37.8548 57.1807 38.1414 57.3776 38.4706C57.5782 38.7992 57.6782 39.1863 57.6782 39.6314C57.6782 40.3411 57.4014 40.9105 56.8485 41.3397C56.2949 41.7646 55.5553 41.9774 54.6286 41.9774C54.0269 41.9774 53.4654 41.8628 52.9441 41.6348C52.4228 41.4019 52.0198 41.0855 51.7351 40.6843C51.4541 40.2831 51.3138 39.8283 51.3138 39.3186H52.4747C52.4747 39.8478 52.6691 40.2667 53.0581 40.5758C53.4514 40.8806 53.9744 41.033 54.628 41.033C55.2377 41.033 55.7047 40.9087 56.0297 40.6599C56.3546 40.4112 56.5168 40.0722 56.5168 39.6436C56.5168 39.2144 56.3662 38.8839 56.0656 38.651C55.7651 38.4145 55.22 38.1816 54.4299 37.953ZM61.9325 41.9774C61.0503 41.9774 60.3321 41.6884 59.7785 41.1111C59.225 40.5294 58.9488 39.7533 58.9488 38.7833V38.5791C58.9488 37.9334 59.0713 37.3579 59.3158 36.8525C59.5645 36.3434 59.909 35.9459 60.3504 35.6618C60.7955 35.3728 61.2765 35.2289 61.7941 35.2289C62.6404 35.2289 63.2976 35.5076 63.767 36.0654C64.2359 36.6227 64.4706 37.4207 64.4706 38.4596V38.923H60.0614C60.0773 39.5643 60.2638 40.0838 60.6211 40.4807C60.982 40.8739 61.4393 41.0702 61.9923 41.0702C62.3855 41.0702 62.7184 40.9897 62.9909 40.8294C63.2634 40.6691 63.5024 40.4563 63.7067 40.1917L64.3865 40.7209C63.8408 41.5586 63.0232 41.9774 61.9325 41.9774ZM61.7972 36.1422C61.3478 36.1422 60.9711 36.3068 60.6662 36.6355C60.3614 36.9604 60.173 37.4177 60.1011 38.0072H63.3616V37.9231C63.3293 37.3579 63.1769 36.9208 62.9043 36.6117C62.6312 36.2989 62.2624 36.1422 61.7972 36.1422ZM68.628 41.069C69.0248 41.069 69.3717 40.9489 69.6687 40.7081C69.965 40.4673 70.1296 40.1667 70.1613 39.8058H71.2142C71.1941 40.1789 71.066 40.5337 70.8295 40.8702C70.5929 41.2074 70.2759 41.4757 69.879 41.6762C69.4858 41.8768 69.0687 41.9768 68.628 41.9768C67.7415 41.9768 67.0355 41.6817 66.5106 41.0928C65.9893 40.499 65.7283 39.6893 65.7283 38.6626V38.4761C65.7283 37.8426 65.8448 37.2793 66.0771 36.786C66.31 36.2928 66.6429 35.9099 67.0757 35.6374C67.5129 35.3649 68.028 35.2283 68.6218 35.2283C69.3516 35.2283 69.957 35.4466 70.4387 35.8843C70.9234 36.3215 71.1825 36.8891 71.2142 37.5865H70.1613C70.1296 37.1653 69.9692 36.8208 69.6802 36.5519C69.3955 36.2794 69.0425 36.1428 68.6218 36.1428C68.0561 36.1428 67.6171 36.3471 67.3043 36.7568C66.9959 37.1616 66.841 37.7493 66.841 38.5193V38.7297C66.841 39.4796 66.9959 40.0569 67.3043 40.4624C67.6134 40.8666 68.0542 41.069 68.628 41.069ZM76.7232 41.2123C76.2891 41.722 75.6538 41.9762 74.8161 41.9762C74.1223 41.9762 73.5925 41.7756 73.2279 41.3745C72.867 40.9696 72.6841 40.3721 72.6804 39.582V35.3472H73.7937V39.5515C73.7937 40.538 74.1937 41.0312 74.996 41.0312C75.8459 41.0312 76.4117 40.7142 76.6921 40.0807V35.3466H77.8047V41.8549H76.7464L76.7232 41.2123ZM82.8973 36.3471C82.7291 36.319 82.5468 36.305 82.3505 36.305C81.6201 36.305 81.125 36.6159 80.8647 37.2372V41.8567H79.7514V35.3484H80.8342L80.8525 36.1002C81.2171 35.5185 81.7347 35.2277 82.4047 35.2277C82.6218 35.2277 82.7858 35.2558 82.8973 35.3119V36.3471ZM85.4988 41.8561H84.2667V35.3472H85.4988V41.8561ZM84.1807 33.6225C84.1807 33.442 84.235 33.2896 84.3435 33.1652C84.4557 33.0408 84.6191 32.9786 84.8361 32.9786C85.0532 32.9786 85.2166 33.0408 85.3299 33.1652C85.4421 33.2896 85.4976 33.442 85.4976 33.6225C85.4976 33.8029 85.4421 33.9535 85.3299 34.0736C85.2166 34.1937 85.0532 34.2541 84.8361 34.2541C84.6191 34.2541 84.4557 34.1937 84.3435 34.0736C84.235 33.9529 84.1807 33.8029 84.1807 33.6225ZM88.9221 33.7724V35.3484H90.1384V36.2087H88.9221V40.2447C88.9221 40.5057 88.9764 40.702 89.0849 40.8343C89.1934 40.9629 89.3782 41.0269 89.6379 41.0269C89.7678 41.0269 89.944 41.0025 90.1677 40.955V41.8573C89.8745 41.9378 89.5903 41.9774 89.3142 41.9774C88.8167 41.9774 88.4417 41.8268 88.1893 41.5263C87.9369 41.2257 87.8101 40.7983 87.8101 40.2453V36.2093H86.6249V35.349H87.8101V33.773H88.9221V33.7724ZM93.8184 40.2258L95.3341 35.3472H96.5254L93.9087 42.8602C93.5032 43.943 92.86 44.4844 91.9784 44.4844L91.7675 44.4661L91.3523 44.3881V43.4857L91.6529 43.5101C92.0296 43.5101 92.3229 43.4339 92.5314 43.2815C92.743 43.1291 92.9179 42.8505 93.0551 42.4456L93.3014 41.7841L90.9792 35.3478H92.1936L93.8184 40.2258ZM100.844 39.5052C100.844 39.0839 100.96 38.6974 101.192 38.3444C101.429 37.9914 101.877 37.5805 102.54 37.1116C102.151 36.6385 101.889 36.2575 101.758 35.9685C101.625 35.6801 101.559 35.3929 101.559 35.1082C101.559 34.4425 101.755 33.9212 102.148 33.5444C102.541 33.167 103.074 32.9786 103.748 32.9786C104.349 32.9786 104.847 33.1548 105.24 33.5078C105.633 33.8566 105.829 34.298 105.829 34.8314C105.829 35.1844 105.739 35.5112 105.56 35.8118C105.382 36.1087 105.071 36.4215 104.627 36.7501L103.982 37.225L105.931 39.5527C106.205 39.0315 106.341 38.4517 106.341 37.8146H107.346C107.346 38.837 107.099 39.685 106.605 40.3587L107.857 41.8567H106.522L105.938 41.1647C105.641 41.4293 105.292 41.6317 104.891 41.772C104.494 41.9085 104.09 41.9768 103.676 41.9768C102.822 41.9768 102.136 41.75 101.619 41.297C101.102 40.8446 100.844 40.2472 100.844 39.5052ZM103.671 41.0684C104.262 41.0684 104.801 40.844 105.29 40.3947L103.154 37.8383L102.956 37.9828C102.287 38.4761 101.951 38.9833 101.951 39.5046C101.951 39.9777 102.104 40.3569 102.409 40.6416C102.718 40.9257 103.138 41.0684 103.671 41.0684ZM102.67 35.0716C102.67 35.457 102.907 35.938 103.38 36.5154L104.09 36.016C104.363 35.8234 104.549 35.6411 104.649 35.4685C104.75 35.2917 104.799 35.0796 104.799 34.8308C104.799 34.562 104.699 34.3394 104.499 34.1632C104.299 33.9828 104.046 33.8925 103.741 33.8925C103.412 33.8925 103.152 34.0047 102.959 34.2291C102.767 34.4498 102.67 34.7308 102.67 35.0716ZM115.041 37.953C114.049 37.6682 113.328 37.3195 112.875 36.9062C112.425 36.4891 112.201 35.9758 112.201 35.3661C112.201 34.6766 112.476 34.1071 113.025 33.6578C113.578 33.2048 114.296 32.978 115.178 32.978C115.779 32.978 116.315 33.0945 116.785 33.3268C117.258 33.5597 117.623 33.8803 117.879 34.2894C118.14 34.6985 118.271 35.1454 118.271 35.6307H117.109C117.109 35.1015 116.942 34.6863 116.604 34.3858C116.267 34.0809 115.792 33.9285 115.178 33.9285C114.61 33.9285 114.163 34.0547 113.843 34.3071C113.527 34.5559 113.368 34.9028 113.368 35.3478C113.368 35.7045 113.518 36.0075 113.818 36.2562C114.124 36.5007 114.639 36.7257 115.364 36.9299C116.095 37.1342 116.664 37.361 117.073 37.6097C117.486 37.8542 117.791 38.1407 117.987 38.47C118.188 38.7986 118.288 39.1857 118.288 39.6308C118.288 40.3404 118.012 40.9099 117.457 41.3391C116.904 41.764 116.165 41.9768 115.239 41.9768C114.636 41.9768 114.076 41.8622 113.554 41.6342C113.032 41.4013 112.63 41.0849 112.345 40.6837C112.064 40.2825 111.924 39.8277 111.924 39.318H113.085C113.085 39.8472 113.279 40.2661 113.668 40.5752C114.061 40.88 114.585 41.0324 115.239 41.0324C115.847 41.0324 116.315 40.908 116.64 40.6593C116.965 40.4106 117.127 40.0716 117.127 39.643C117.127 39.2138 116.977 38.8833 116.676 38.6504C116.376 38.4145 115.83 38.1816 115.041 37.953ZM123.863 41.2123C123.43 41.722 122.794 41.9762 121.957 41.9762C121.262 41.9762 120.733 41.7756 120.368 41.3745C120.008 40.9696 119.824 40.3721 119.82 39.582V35.3472H120.933V39.5515C120.933 40.538 121.334 41.0312 122.137 41.0312C122.986 41.0312 123.552 40.7142 123.833 40.0807V35.3466H124.945V41.8549H123.887L123.863 41.2123ZM132.391 38.6748C132.391 39.6655 132.164 40.4636 131.711 41.069C131.259 41.6744 130.646 41.9774 129.871 41.9774C129.081 41.9774 128.459 41.7268 128.007 41.2257V44.3594H126.893V35.3484H127.91L127.964 36.0703C128.417 35.5088 129.047 35.2283 129.854 35.2283C130.635 35.2283 131.253 35.5228 131.707 36.1124C132.163 36.7019 132.391 37.5219 132.391 38.5724V38.6748ZM131.274 38.5498C131.274 37.8158 131.118 37.2366 130.805 36.8117C130.492 36.3867 130.064 36.1739 129.518 36.1739C128.844 36.1739 128.339 36.4727 128.002 37.0702V40.1801C128.335 40.7739 128.844 41.0702 129.53 41.0702C130.064 41.0702 130.486 40.8599 130.799 40.4386C131.115 40.0137 131.274 39.3839 131.274 38.5498ZM139.554 38.6748C139.554 39.6655 139.327 40.4636 138.875 41.069C138.422 41.6744 137.808 41.9774 137.035 41.9774C136.244 41.9774 135.623 41.7268 135.17 41.2257V44.3594H134.057V35.3484H135.073L135.127 36.0703C135.58 35.5088 136.21 35.2283 137.016 35.2283C137.798 35.2283 138.415 35.5228 138.869 36.1124C139.326 36.7019 139.554 37.5219 139.554 38.5724V38.6748ZM138.438 38.5498C138.438 37.8158 138.282 37.2366 137.969 36.8117C137.656 36.3867 137.227 36.1739 136.682 36.1739C136.008 36.1739 135.502 36.4727 135.166 37.0702V40.1801C135.499 40.7739 136.008 41.0702 136.694 41.0702C137.227 41.0702 137.65 40.8599 137.962 40.4386C138.281 40.0137 138.438 39.3839 138.438 38.5498ZM140.925 38.5425C140.925 37.9048 141.049 37.3311 141.298 36.822C141.55 36.3129 141.9 35.9197 142.345 35.6429C142.793 35.3661 143.304 35.2277 143.879 35.2277C144.765 35.2277 145.48 35.5344 146.026 36.1483C146.575 36.7623 146.85 37.578 146.85 38.5968V38.6748C146.85 39.3083 146.728 39.8777 146.483 40.3831C146.243 40.8843 145.896 41.2757 145.442 41.5561C144.994 41.8366 144.476 41.9774 143.891 41.9774C143.009 41.9774 142.293 41.6707 141.744 41.0568C141.198 40.4429 140.925 39.6314 140.925 38.6206V38.5425ZM142.04 38.6748C142.04 39.3967 142.206 39.9759 142.539 40.413C142.875 40.8501 143.325 41.069 143.887 41.069C144.452 41.069 144.901 40.8483 145.233 40.4075C145.567 39.9624 145.733 39.3412 145.733 38.5431C145.733 37.8292 145.562 37.2518 145.222 36.811C144.884 36.366 144.436 36.1435 143.874 36.1435C143.325 36.1435 142.881 36.3617 142.545 36.7995C142.208 37.2354 142.04 37.8609 142.04 38.6748ZM151.639 36.3471C151.47 36.319 151.287 36.305 151.091 36.305C150.361 36.305 149.866 36.6159 149.605 37.2372V41.8567H148.493V35.3484H149.576L149.593 36.1002C149.958 35.5185 150.476 35.2277 151.145 35.2277C151.362 35.2277 151.525 35.2558 151.639 35.3119V36.3471ZM154.721 33.7724V35.3484H155.937V36.2087H154.721V40.2447C154.721 40.5057 154.775 40.702 154.884 40.8343C154.992 40.9629 155.177 41.0269 155.437 41.0269C155.566 41.0269 155.743 41.0025 155.967 40.955V41.8573C155.673 41.9378 155.389 41.9774 155.113 41.9774C154.616 41.9774 154.241 41.8268 153.988 41.5263C153.735 41.2257 153.609 40.7983 153.609 40.2453V36.2093H152.424V35.349H153.609V33.773H154.721V33.7724Z" fill="white"/>
</svg>
